<svg version="1.1" id="Layer_1" xmlns="http://www.w3.org/2000/svg" xmlns:xlink="http://www.w3.org/1999/xlink" x="0px" y="0px"
	 width="100%" viewBox="0 0 960 960" enable-background="new 0 0 960 960" xml:space="preserve">
<path fill="#FFFFFF" opacity="1.000000" stroke="none" 
	d="
M439.000000,961.000000 
	C292.666656,961.000000 146.833328,961.000000 1.000000,961.000000 
	C1.000000,641.000000 1.000000,321.000000 1.000000,1.000000 
	C321.000000,1.000000 641.000000,1.000000 961.000000,1.000000 
	C961.000000,321.000000 961.000000,641.000000 961.000000,961.000000 
	C787.166687,961.000000 613.333313,961.000000 439.000000,961.000000 
M51.997486,534.500000 
	C51.997486,574.590759 51.997486,614.681519 51.997486,654.706177 
	C338.321838,654.706177 624.037720,654.706177 909.698120,654.706177 
	C909.698120,538.683105 909.698120,422.956482 909.698120,307.293945 
	C623.677856,307.293945 337.961975,307.293945 51.997486,307.293945 
	C51.997486,382.893372 51.997486,458.196686 51.997486,534.500000 
z"/>
<path fill="#013467" opacity="1.000000" stroke="none" 
	d="
M51.997486,534.000000 
	C51.997486,458.196686 51.997486,382.893372 51.997486,307.293945 
	C337.961975,307.293945 623.677856,307.293945 909.698120,307.293945 
	C909.698120,422.956482 909.698120,538.683105 909.698120,654.706177 
	C624.037720,654.706177 338.321838,654.706177 51.997486,654.706177 
	C51.997486,614.681519 51.997486,574.590759 51.997486,534.000000 
M490.499939,641.767212 
	C625.603149,641.767212 760.706360,641.767212 895.788696,641.767212 
	C895.788696,534.285034 895.788696,427.402252 895.788696,320.520111 
	C619.007568,320.520111 342.602844,320.520111 66.217560,320.520111 
	C66.217560,427.702026 66.217560,534.584290 66.217560,641.767212 
	C207.561798,641.767212 348.530823,641.767212 490.499939,641.767212 
z"/>
<path fill="#FEFEFE" opacity="1.000000" stroke="none" 
	d="
M489.999908,641.767212 
	C348.530823,641.767212 207.561798,641.767212 66.217560,641.767212 
	C66.217560,534.584290 66.217560,427.702026 66.217560,320.520111 
	C342.602844,320.520111 619.007568,320.520111 895.788696,320.520111 
	C895.788696,427.402252 895.788696,534.285034 895.788696,641.767212 
	C760.706360,641.767212 625.603149,641.767212 489.999908,641.767212 
M355.508240,441.099182 
	C352.036346,441.099182 348.564453,441.099182 344.336426,441.099182 
	C344.336426,444.894562 344.336426,448.359100 344.336426,452.733337 
	C329.631226,434.008240 300.007324,435.710480 285.245026,449.212067 
	C267.784637,465.181335 265.917328,494.738190 281.620911,514.024780 
	C293.545044,528.669556 323.196747,536.026062 343.989288,516.081299 
	C343.054901,523.047791 342.769684,528.785339 341.431061,534.265564 
	C339.649536,541.559143 334.702057,547.070374 327.452972,548.485901 
	C320.617065,549.820862 313.085999,550.380798 306.388153,548.898499 
	C298.852753,547.230835 291.907623,542.895935 284.012726,539.415833 
	C280.403198,544.116394 276.132965,549.677368 271.690826,555.462219 
	C289.513885,567.935364 308.680756,571.914856 329.183685,568.441711 
	C348.284241,565.206055 360.739258,554.235535 364.242493,534.570740 
	C365.201447,529.187744 365.895721,523.680237 365.936188,518.224182 
	C366.116486,493.899414 366.020203,469.572571 366.004150,445.246490 
	C366.003326,443.972900 365.821533,442.699432 365.698944,441.099182 
	C362.421204,441.099182 359.452454,441.099182 355.508240,441.099182 
M620.221436,450.275391 
	C611.912842,442.606110 602.186340,438.731506 590.797791,438.743317 
	C579.335144,438.755188 569.497437,442.511444 560.759888,451.665375 
	C560.759888,431.101868 560.759888,411.733521 560.759888,392.415955 
	C553.023071,392.415955 545.785889,392.415955 538.574097,392.415955 
	C538.574097,437.423309 538.574097,482.107513 538.574097,526.611328 
	C545.876343,526.611328 552.779846,526.611328 560.157288,526.611328 
	C560.157288,522.865662 560.157288,519.512878 560.157288,515.573303 
	C574.456177,533.798584 603.568970,532.795532 618.508301,519.317017 
	C637.761353,501.946594 638.944885,470.507538 620.221436,450.275391 
M390.503113,392.092865 
	C386.885620,392.092865 383.268097,392.092865 379.513245,392.092865 
	C379.513245,437.306885 379.513245,481.997650 379.513245,526.711060 
	C387.093872,526.711060 394.337250,526.711060 401.947205,526.711060 
	C401.947205,511.629517 401.757294,496.835724 402.064026,482.052185 
	C402.154907,477.673096 402.953613,473.033478 404.635315,469.019073 
	C408.289459,460.296234 417.350464,456.096375 426.429596,458.087769 
	C433.149963,459.561829 437.767517,466.111450 437.939484,475.401062 
	C438.223083,490.718475 438.162781,506.042297 438.244690,521.363403 
	C438.254181,523.136475 438.245972,524.909668 438.245972,526.718018 
	C446.148834,526.718018 453.391998,526.718018 460.717560,526.718018 
	C460.717560,507.146393 461.782410,487.788483 460.457703,468.595490 
	C458.656006,442.491852 429.820862,429.513733 409.172974,444.688019 
	C406.741119,446.475220 404.672791,448.757050 401.819916,451.374847 
	C401.819916,431.230011 401.819916,411.849731 401.819916,392.092865 
	C398.078888,392.092865 394.781830,392.092865 390.503113,392.092865 
M693.235107,439.051666 
	C685.997620,439.748322 678.515625,439.501953 671.564941,441.304535 
	C641.104065,449.204224 629.221436,488.750275 649.878052,512.429504 
	C662.952942,527.417603 679.716248,531.818787 698.583740,528.333191 
	C714.816284,525.334351 726.850586,516.110046 733.043457,500.489746 
	C744.424805,471.782562 725.733459,442.452759 693.235107,439.051666 
M755.041504,491.528381 
	C745.935852,503.079132 736.830200,514.629883 727.075378,527.004150 
	C732.529663,527.004150 736.892212,526.447754 741.058411,527.116028 
	C750.780396,528.675537 757.186890,525.162659 762.126770,516.637024 
	C766.226562,509.561493 771.799072,503.339294 776.977478,496.392517 
	C784.153381,506.085907 790.848206,515.184692 797.629517,524.218506 
	C798.455200,525.318481 799.726440,526.832642 800.824402,526.860779 
	C809.374512,527.079895 817.932678,526.981873 827.427002,526.981873 
	C815.018066,511.326294 803.266113,496.499664 791.316833,481.423981 
	C801.749817,468.182892 812.064148,455.092285 823.090393,441.098206 
	C814.764832,441.098206 807.815674,441.253296 800.879028,441.025757 
	C797.890686,440.927765 795.996399,441.843292 794.260559,444.279663 
	C788.854919,451.866089 783.216919,459.287018 777.362732,467.185547 
	C771.668823,459.308960 766.185242,451.629242 760.567871,444.048706 
	C759.672607,442.840424 758.201172,441.275848 756.954590,441.237854 
	C748.719788,440.986816 740.473572,441.108124 731.069946,441.108124 
	C742.162048,455.116333 752.544067,468.227692 762.991516,481.421661 
	C760.415894,484.705536 757.955444,487.842590 755.041504,491.528381 
M217.433044,506.501953 
	C202.679153,506.501953 187.925247,506.501953 172.666229,506.501953 
	C172.666229,470.965088 172.666229,436.063782 172.666229,401.016602 
	C164.567368,401.016602 156.983749,401.016602 149.362717,401.016602 
	C149.362717,443.122345 149.362717,484.987762 149.362717,526.782593 
	C175.666412,526.782593 201.605911,526.782593 227.649200,526.782593 
	C227.649200,520.022400 227.649200,513.485474 227.649200,506.502136 
	C224.357941,506.502136 221.383484,506.502136 217.433044,506.501953 
M523.302124,509.999359 
	C512.498535,512.445679 506.772522,510.021515 506.386475,501.514343 
	C505.748047,487.446625 506.212952,473.328857 506.212952,458.689331 
	C513.535706,458.689331 520.598999,458.689331 527.652954,458.689331 
	C527.652954,452.565094 527.652954,446.992828 527.652954,440.934326 
	C520.289490,440.934326 513.224731,440.934326 505.882141,440.934326 
	C505.882141,432.661743 505.882141,424.876678 505.882141,416.863312 
	C498.390198,416.863312 491.205383,416.863312 483.649719,416.863312 
	C483.649719,425.036407 483.649719,432.812744 483.649719,441.115845 
	C478.393127,441.115845 473.488129,441.115845 468.403198,441.115845 
	C468.403198,447.229187 468.403198,452.804108 468.403198,458.930939 
	C473.522003,458.930939 478.421631,458.930939 483.734314,458.930939 
	C483.734314,461.272247 483.725922,463.066803 483.735687,464.861328 
	C483.806458,477.851471 483.610596,490.850525 484.038788,503.828949 
	C484.387878,514.409363 488.714691,523.000671 499.310028,526.778870 
	C508.526276,530.065369 517.891724,529.143677 527.021729,526.657532 
	C527.021729,520.633118 527.021729,515.032166 527.021729,509.148132 
	C525.706116,509.460388 524.913513,509.648529 523.302124,509.999359 
M260.947876,521.367004 
	C260.947876,494.665894 260.947876,467.964752 260.947876,441.464905 
	C252.917480,441.464905 245.682999,441.464905 238.414185,441.464905 
	C238.414185,470.059479 238.414185,498.282745 238.414185,526.756226 
	C245.885727,526.756226 253.123337,526.756226 260.691376,526.756226 
	C260.780548,525.218994 260.864197,523.776672 260.947876,521.367004 
M243.301498,400.573395 
	C235.949432,404.655975 233.224808,411.423737 236.299347,417.966095 
	C239.373993,424.508667 248.208603,427.476410 255.713303,424.487671 
	C261.245728,422.284393 264.359070,417.415985 263.973083,411.571686 
	C263.606445,406.020996 259.565796,401.053070 253.865540,400.107758 
	C250.670654,399.577942 247.292099,400.155762 243.301498,400.573395 
z"/>
<path fill="#033568" opacity="1.000000" stroke="none" 
	d="
M355.995972,441.099182 
	C359.452454,441.099182 362.421204,441.099182 365.698944,441.099182 
	C365.821533,442.699432 366.003326,443.972900 366.004150,445.246490 
	C366.020203,469.572571 366.116486,493.899414 365.936188,518.224182 
	C365.895721,523.680237 365.201447,529.187744 364.242493,534.570740 
	C360.739258,554.235535 348.284241,565.206055 329.183685,568.441711 
	C308.680756,571.914856 289.513885,567.935364 271.690826,555.462219 
	C276.132965,549.677368 280.403198,544.116394 284.012726,539.415833 
	C291.907623,542.895935 298.852753,547.230835 306.388153,548.898499 
	C313.085999,550.380798 320.617065,549.820862 327.452972,548.485901 
	C334.702057,547.070374 339.649536,541.559143 341.431061,534.265564 
	C342.769684,528.785339 343.054901,523.047791 343.989288,516.081299 
	C323.196747,536.026062 293.545044,528.669556 281.620911,514.024780 
	C265.917328,494.738190 267.784637,465.181335 285.245026,449.212067 
	C300.007324,435.710480 329.631226,434.008240 344.336426,452.733337 
	C344.336426,448.359100 344.336426,444.894562 344.336426,441.099182 
	C348.564453,441.099182 352.036346,441.099182 355.995972,441.099182 
M337.602631,464.931793 
	C335.953186,463.551178 334.426697,461.980103 332.633331,460.822388 
	C324.135315,455.336395 312.434143,455.511383 304.437256,461.115692 
	C296.230011,466.867401 291.991302,479.091156 294.557007,489.586395 
	C297.040649,499.746063 302.866974,507.087891 313.243896,509.498962 
	C322.430786,511.633484 330.756378,509.041534 337.324982,502.086700 
	C346.479614,492.393768 346.692017,477.212341 337.602631,464.931793 
z"/>
<path fill="#043668" opacity="1.000000" stroke="none" 
	d="
M620.485107,450.513306 
	C638.944885,470.507538 637.761353,501.946594 618.508301,519.317017 
	C603.568970,532.795532 574.456177,533.798584 560.157288,515.573303 
	C560.157288,519.512878 560.157288,522.865662 560.157288,526.611328 
	C552.779846,526.611328 545.876343,526.611328 538.574097,526.611328 
	C538.574097,482.107513 538.574097,437.423309 538.574097,392.415955 
	C545.785889,392.415955 553.023071,392.415955 560.759888,392.415955 
	C560.759888,411.733521 560.759888,431.101868 560.759888,451.665375 
	C569.497437,442.511444 579.335144,438.755188 590.797791,438.743317 
	C602.186340,438.731506 611.912842,442.606110 620.485107,450.513306 
M591.670471,457.361450 
	C589.518799,457.201111 587.364746,456.875336 585.215942,456.907349 
	C571.553833,457.110718 560.172119,469.490570 560.158997,484.076111 
	C560.145935,498.605865 571.669495,510.889648 585.431641,511.016022 
	C598.114197,511.132477 607.996948,502.276917 610.149109,488.867493 
	C612.495178,474.250427 605.549927,462.029846 591.670471,457.361450 
z"/>
<path fill="#043668" opacity="1.000000" stroke="none" 
	d="
M390.993927,392.092865 
	C394.781830,392.092865 398.078888,392.092865 401.819916,392.092865 
	C401.819916,411.849731 401.819916,431.230011 401.819916,451.374847 
	C404.672791,448.757050 406.741119,446.475220 409.172974,444.688019 
	C429.820862,429.513733 458.656006,442.491852 460.457703,468.595490 
	C461.782410,487.788483 460.717560,507.146393 460.717560,526.718018 
	C453.391998,526.718018 446.148834,526.718018 438.245972,526.718018 
	C438.245972,524.909668 438.254181,523.136475 438.244690,521.363403 
	C438.162781,506.042297 438.223083,490.718475 437.939484,475.401062 
	C437.767517,466.111450 433.149963,459.561829 426.429596,458.087769 
	C417.350464,456.096375 408.289459,460.296234 404.635315,469.019073 
	C402.953613,473.033478 402.154907,477.673096 402.064026,482.052185 
	C401.757294,496.835724 401.947205,511.629517 401.947205,526.711060 
	C394.337250,526.711060 387.093872,526.711060 379.513245,526.711060 
	C379.513245,481.997650 379.513245,437.306885 379.513245,392.092865 
	C383.268097,392.092865 386.885620,392.092865 390.993927,392.092865 
z"/>
<path fill="#033568" opacity="1.000000" stroke="none" 
	d="
M693.698242,439.077332 
	C725.733459,442.452759 744.424805,471.782562 733.043457,500.489746 
	C726.850586,516.110046 714.816284,525.334351 698.583740,528.333191 
	C679.716248,531.818787 662.952942,527.417603 649.878052,512.429504 
	C629.221436,488.750275 641.104065,449.204224 671.564941,441.304535 
	C678.515625,439.501953 685.997620,439.748322 693.698242,439.077332 
M710.062866,470.621674 
	C703.017761,457.992889 690.192627,453.391388 677.489014,458.934570 
	C667.712280,463.200623 661.887878,474.585999 663.030029,487.198425 
	C664.008972,498.008453 670.793213,506.847504 680.483398,509.937988 
	C689.709473,512.880432 700.417114,510.187927 706.332092,502.740143 
	C713.900146,493.210938 715.053711,482.578430 710.062866,470.621674 
z"/>
<path fill="#033568" opacity="1.000000" stroke="none" 
	d="
M755.268250,491.254028 
	C757.955444,487.842590 760.415894,484.705536 762.991516,481.421661 
	C752.544067,468.227692 742.162048,455.116333 731.069946,441.108124 
	C740.473572,441.108124 748.719788,440.986816 756.954590,441.237854 
	C758.201172,441.275848 759.672607,442.840424 760.567871,444.048706 
	C766.185242,451.629242 771.668823,459.308960 777.362732,467.185547 
	C783.216919,459.287018 788.854919,451.866089 794.260559,444.279663 
	C795.996399,441.843292 797.890686,440.927765 800.879028,441.025757 
	C807.815674,441.253296 814.764832,441.098206 823.090393,441.098206 
	C812.064148,455.092285 801.749817,468.182892 791.316833,481.423981 
	C803.266113,496.499664 815.018066,511.326294 827.427002,526.981873 
	C817.932678,526.981873 809.374512,527.079895 800.824402,526.860779 
	C799.726440,526.832642 798.455200,525.318481 797.629517,524.218506 
	C790.848206,515.184692 784.153381,506.085907 776.977478,496.392517 
	C771.799072,503.339294 766.226562,509.561493 762.126770,516.637024 
	C757.186890,525.162659 750.780396,528.675537 741.058411,527.116028 
	C736.892212,526.447754 732.529663,527.004150 727.075378,527.004150 
	C736.830200,514.629883 745.935852,503.079132 755.268250,491.254028 
z"/>
<path fill="#023567" opacity="1.000000" stroke="none" 
	d="
M217.921036,506.502045 
	C221.383484,506.502136 224.357941,506.502136 227.649200,506.502136 
	C227.649200,513.485474 227.649200,520.022400 227.649200,526.782593 
	C201.605911,526.782593 175.666412,526.782593 149.362717,526.782593 
	C149.362717,484.987762 149.362717,443.122345 149.362717,401.016602 
	C156.983749,401.016602 164.567368,401.016602 172.666229,401.016602 
	C172.666229,436.063782 172.666229,470.965088 172.666229,506.501953 
	C187.925247,506.501953 202.679153,506.501953 217.921036,506.502045 
z"/>
<path fill="#043668" opacity="1.000000" stroke="none" 
	d="
M523.711548,509.918030 
	C524.913513,509.648529 525.706116,509.460388 527.021729,509.148132 
	C527.021729,515.032166 527.021729,520.633118 527.021729,526.657532 
	C517.891724,529.143677 508.526276,530.065369 499.310028,526.778870 
	C488.714691,523.000671 484.387878,514.409363 484.038788,503.828949 
	C483.610596,490.850525 483.806458,477.851471 483.735687,464.861328 
	C483.725922,463.066803 483.734314,461.272247 483.734314,458.930939 
	C478.421631,458.930939 473.522003,458.930939 468.403198,458.930939 
	C468.403198,452.804108 468.403198,447.229187 468.403198,441.115845 
	C473.488129,441.115845 478.393127,441.115845 483.649719,441.115845 
	C483.649719,432.812744 483.649719,425.036407 483.649719,416.863312 
	C491.205383,416.863312 498.390198,416.863312 505.882141,416.863312 
	C505.882141,424.876678 505.882141,432.661743 505.882141,440.934326 
	C513.224731,440.934326 520.289490,440.934326 527.652954,440.934326 
	C527.652954,446.992828 527.652954,452.565094 527.652954,458.689331 
	C520.598999,458.689331 513.535706,458.689331 506.212952,458.689331 
	C506.212952,473.328857 505.748047,487.446625 506.386475,501.514343 
	C506.772522,510.021515 512.498535,512.445679 523.711548,509.918030 
z"/>
<path fill="#053769" opacity="1.000000" stroke="none" 
	d="
M260.947876,521.850708 
	C260.864197,523.776672 260.780548,525.218994 260.691376,526.756226 
	C253.123337,526.756226 245.885727,526.756226 238.414185,526.756226 
	C238.414185,498.282745 238.414185,470.059479 238.414185,441.464905 
	C245.682999,441.464905 252.917480,441.464905 260.947876,441.464905 
	C260.947876,467.964752 260.947876,494.665894 260.947876,521.850708 
z"/>
<path fill="#053769" opacity="1.000000" stroke="none" 
	d="
M243.648895,400.403961 
	C247.292099,400.155762 250.670654,399.577942 253.865540,400.107758 
	C259.565796,401.053070 263.606445,406.020996 263.973083,411.571686 
	C264.359070,417.415985 261.245728,422.284393 255.713303,424.487671 
	C248.208603,427.476410 239.373993,424.508667 236.299347,417.966095 
	C233.224808,411.423737 235.949432,404.655975 243.648895,400.403961 
z"/>
<path fill="#FDFDFE" opacity="1.000000" stroke="none" 
	d="
M337.823700,465.217133 
	C346.692017,477.212341 346.479614,492.393768 337.324982,502.086700 
	C330.756378,509.041534 322.430786,511.633484 313.243896,509.498962 
	C302.866974,507.087891 297.040649,499.746063 294.557007,489.586395 
	C291.991302,479.091156 296.230011,466.867401 304.437256,461.115692 
	C312.434143,455.511383 324.135315,455.336395 332.633331,460.822388 
	C334.426697,461.980103 335.953186,463.551178 337.823700,465.217133 
z"/>
<path fill="#FCFDFD" opacity="1.000000" stroke="none" 
	d="
M592.053467,457.531372 
	C605.549927,462.029846 612.495178,474.250427 610.149109,488.867493 
	C607.996948,502.276917 598.114197,511.132477 585.431641,511.016022 
	C571.669495,510.889648 560.145935,498.605865 560.158997,484.076111 
	C560.172119,469.490570 571.553833,457.110718 585.215942,456.907349 
	C587.364746,456.875336 589.518799,457.201111 592.053467,457.531372 
z"/>
<path fill="#FDFDFE" opacity="1.000000" stroke="none" 
	d="
M710.205566,470.979370 
	C715.053711,482.578430 713.900146,493.210938 706.332092,502.740143 
	C700.417114,510.187927 689.709473,512.880432 680.483398,509.937988 
	C670.793213,506.847504 664.008972,498.008453 663.030029,487.198425 
	C661.887878,474.585999 667.712280,463.200623 677.489014,458.934570 
	C690.192627,453.391388 703.017761,457.992889 710.205566,470.979370 
z"/>
</svg>